<svg width="747" height="747" viewBox="0 0 747 747" fill="none" xmlns="http://www.w3.org/2000/svg">
<path d="M373.338 431.667C426.369 431.667 477.078 408.989 512.472 369.448L495.086 353.885C464.117 388.489 419.742 408.333 373.341 408.333C283.278 408.333 210.008 335.063 210.008 245C210.008 154.937 283.278 81.6667 373.341 81.6667C463.404 81.6667 536.674 154.937 536.674 245C536.674 275.953 527.982 306.073 511.538 332.104L531.268 344.568C550.07 314.797 560.008 280.37 560.008 245C560.008 142.073 476.268 58.3329 373.341 58.3329C270.414 58.3329 186.674 142.073 186.674 245C186.674 347.926 270.414 431.666 373.341 431.666L373.338 431.667Z" fill="white"/>
<path d="M373.338 490C508.432 490 618.338 380.093 618.338 245C618.338 109.907 508.432 0 373.338 0C238.245 0 128.338 109.907 128.338 245C128.338 380.093 238.245 490 373.338 490ZM373.338 23.3333C495.568 23.3333 595.005 122.771 595.005 245C595.005 367.229 495.568 466.667 373.338 466.667C251.109 466.667 151.672 367.229 151.672 245C151.672 122.771 251.109 23.3333 373.338 23.3333Z" fill="white"/>
<path d="M746.672 676.667V501.667C746.672 495.224 741.448 490 735.005 490H593.552C587.109 490 581.885 495.224 581.885 501.667V513.333H525.01C518.568 513.333 513.344 518.557 513.344 525V547.953C499.313 539.828 483.328 535.495 466.677 535.495C441.745 535.495 418.308 545.203 400.682 562.834L391.844 571.667H342.839C322.391 571.667 303.599 580.375 290.599 595H269.505L215.771 584.25L171.599 540.084C169.411 537.896 166.442 536.667 163.349 536.667H128.343V560H158.51L201.761 603.251C203.391 604.881 205.464 605.991 207.724 606.444L266.057 618.11C266.813 618.261 267.578 618.334 268.344 618.334H276.781L269.182 637.334C267.745 640.928 268.182 645.001 270.354 648.209C272.521 651.412 276.141 653.334 280.011 653.334H443.344V630.001H297.237L299.503 624.334C306.633 606.512 323.639 595.001 342.831 595.001H396.675C399.769 595.001 402.737 593.772 404.925 591.584L417.18 579.329C430.399 566.11 447.983 558.824 466.675 558.824C484.065 558.824 500.492 565.126 513.341 576.646V690.433L350.128 723.073L145.848 677.682L23.332 555.166V548.333H65.1653L155.083 638.25C156.197 639.365 157.531 640.245 158.999 640.834L217.333 664.167C218.713 664.719 220.182 665 221.666 665H244.999V641.667H223.911L169.885 620.058L78.2447 528.418C76.0572 526.23 73.0884 525.001 69.9947 525.001H11.6667C5.224 525.001 0 530.225 0 536.668V560.001C0 563.095 1.22917 566.064 3.41667 568.251L131.75 696.584C133.318 698.152 135.302 699.241 137.469 699.725L347.469 746.392C348.302 746.579 349.151 746.668 350 746.668C350.766 746.668 351.531 746.59 352.286 746.444L513.606 714.184C514.752 719.418 519.419 723.34 525.002 723.34H581.877V733.548C581.877 739.991 587.101 745.215 593.544 745.215H734.997C741.44 745.215 746.664 739.991 746.664 733.548V700.007H723.33V721.882H605.205V717.324C606.132 715.652 606.663 713.725 606.663 711.673V525.007C606.663 522.954 606.132 521.027 605.205 519.356V513.34H723.33V676.673L746.672 676.667ZM536.672 700V536.667H581.88V700H536.672Z" fill="white"/>
<path d="M653.338 676.667H700.005V700H653.338V676.667Z" fill="white"/>
<path d="M466.672 175V151.667H291.672V175H373.338C388.546 175 401.526 184.755 406.338 198.333H315.005V221.667H406.338C401.521 235.245 388.546 245 373.338 245H318.234C303.589 245 291.672 256.917 291.672 271.563C291.672 280.839 296.614 289.568 304.568 294.344L414 360.005L426.005 339.995L316.573 274.333C315.604 273.755 315.005 272.693 315.005 271.563C315.005 269.781 316.453 268.333 318.234 268.333H373.338C401.51 268.333 425.078 248.26 430.5 221.667H455.005V198.333H430.5C428.744 189.719 425.083 181.787 419.979 175H466.672Z" fill="white"/>
<path d="M478.338 233.333H501.672V256.667H478.338V233.333Z" fill="white"/>
<path d="M245.005 233.333H268.338V256.667H245.005V233.333Z" fill="white"/>
<path d="M653.338 58.3333H676.672V81.6666H653.338V58.3333Z" fill="white"/>
<path d="M653.338 105H676.672V128.333H653.338V105Z" fill="white"/>
<path d="M630.005 81.6667H653.338V105H630.005V81.6667Z" fill="white"/>
<path d="M676.672 81.6667H700.005V105H676.672V81.6667Z" fill="white"/>
<path d="M70.0051 350H93.3385V373.333H70.0051V350Z" fill="white"/>
<path d="M70.0051 396.667H93.3385V420H70.0051V396.667Z" fill="white"/>
<path d="M46.6716 373.333H70.005V396.667H46.6716V373.333Z" fill="white"/>
<path d="M93.3384 373.333H116.672V396.667H93.3384V373.333Z" fill="white"/>
</svg>
